<svg width="15" height="14" viewBox="0 0 15 14" fill="none" xmlns="http://www.w3.org/2000/svg">
<path fill-rule="evenodd" clip-rule="evenodd" d="M7.95257 0C4.07855 0 0.946777 3.20832 0.946777 7.17745C0.946777 10.3502 2.95341 13.0358 5.73714 13.9864C6.08518 14.0578 6.21267 13.8319 6.21267 13.6419C6.21267 13.4755 6.20119 12.9052 6.20119 12.3109C4.25235 12.7388 3.84652 11.4553 3.84652 11.4553C3.53333 10.6235 3.06928 10.4097 3.06928 10.4097C2.43142 9.97 3.11574 9.97 3.11574 9.97C3.82329 10.0175 4.19456 10.7067 4.19456 10.7067C4.8208 11.7999 5.82992 11.491 6.2359 11.3009C6.29383 10.8374 6.47954 10.5166 6.67672 10.3384C5.12238 10.172 3.48701 9.55409 3.48701 6.79712C3.48701 6.01283 3.76521 5.37117 4.20603 4.87213C4.13648 4.69392 3.89284 3.95703 4.27573 2.97076C4.27573 2.97076 4.86726 2.78059 6.20105 3.70751C6.77209 3.55039 7.361 3.47047 7.95257 3.4698C8.54411 3.4698 9.14711 3.55307 9.70395 3.70751C11.0379 2.78059 11.6294 2.97076 11.6294 2.97076C12.0123 3.95703 11.7685 4.69392 11.699 4.87213C12.1514 5.37117 12.4181 6.01283 12.4181 6.79712C12.4181 9.55409 10.7828 10.16 9.21681 10.3384C9.47206 10.5641 9.69233 10.9918 9.69233 11.6692C9.69233 12.6317 9.68086 13.4042 9.68086 13.6418C9.68086 13.8319 9.80849 14.0578 10.1564 13.9865C12.9401 13.0357 14.9467 10.3502 14.9467 7.17745C14.9582 3.20832 11.815 0 7.95257 0Z" fill="#0038FF"/>
</svg>
