<svg width="13" height="11" viewBox="0 0 13 11" fill="none" xmlns="http://www.w3.org/2000/svg">
<path d="M11.5182 0H2.37535C1.58678 0 0.946777 0.586667 0.946777 1.30952V9.69048C0.946777 10.4133 1.58678 11 2.37535 11H11.5182C12.3068 11 12.9468 10.4133 12.9468 9.69048V1.30952C12.9468 0.586667 12.3068 0 11.5182 0ZM4.66106 4.19048V9.16667H2.94678V4.19048H4.66106ZM2.94678 2.74214C2.94678 2.37548 3.28963 2.09524 3.80392 2.09524C4.31821 2.09524 4.64106 2.37548 4.66106 2.74214C4.66106 3.10881 4.34106 3.40476 3.80392 3.40476C3.28963 3.40476 2.94678 3.10881 2.94678 2.74214ZM10.9468 9.16667H9.23249C9.23249 9.16667 9.23249 6.74143 9.23249 6.54762C9.23249 6.02381 8.94678 5.5 8.23249 5.48952H8.20963C7.51821 5.48952 7.23249 6.02905 7.23249 6.54762C7.23249 6.78595 7.23249 9.16667 7.23249 9.16667H5.51821V4.19048H7.23249V4.86095C7.23249 4.86095 7.78392 4.19048 8.89249 4.19048C10.0268 4.19048 10.9468 4.90548 10.9468 6.35381V9.16667Z" fill="#0038FF"/>
</svg>
