<svg width="10" height="14" viewBox="0 0 10 14" fill="none" xmlns="http://www.w3.org/2000/svg">
<path d="M5.22139 0.101074C2.6756 0.101074 0.604492 2.17249 0.604492 4.71834C0.604492 7.16895 4.79349 12.8944 4.97185 13.1369L5.13831 13.3634C5.15778 13.3901 5.18878 13.4056 5.22139 13.4056C5.25451 13.4056 5.28531 13.3901 5.30498 13.3634L5.47134 13.1369C5.6498 12.8944 9.8387 7.16895 9.8387 4.71834C9.8387 2.17249 7.76725 0.101074 5.22139 0.101074ZM5.22139 3.06445C6.13356 3.06445 6.87529 3.80621 6.87529 4.71834C6.87529 5.63 6.13352 6.37224 5.22139 6.37224C4.30977 6.37224 3.56749 5.63 3.56749 4.71834C3.56749 3.80621 4.30973 3.06445 5.22139 3.06445Z" fill="#0038FF"/>
</svg>
