<svg width="151" height="150" viewBox="0 0 151 150" fill="none" xmlns="http://www.w3.org/2000/svg">
<path d="M75.5 0L86.9904 21.4417L106.209 6.52732L107.985 30.7889L131.607 24.9806L123.362 47.867L147.305 52.1692L130.463 69.7231L150.586 83.3919L128.061 92.5781L140.885 113.25L116.571 112.48L119.878 136.581L97.9787 125.988L91.1973 149.35L75.5 130.766L59.8027 149.35L53.0213 125.988L31.1222 136.581L34.4294 112.48L10.1151 113.25L22.9389 92.5781L0.413597 83.3919L20.5368 69.7231L3.69524 52.1692L27.6382 47.867L19.3926 24.9806L43.0155 30.7889L44.7914 6.52732L64.0096 21.4417L75.5 0Z" fill="#0038FF"/>
</svg>
